<svg version="1" xmlns="http://www.w3.org/2000/svg" width="2666.667" height="2666.667" viewBox="0 0 2000.000000 2000.000000"><path d="M952.5 1c-36 2-73.9 5.8-104 10.5C647.2 42.8 460.4 134.3 313 273.9 192 388.5 103.8 527 51.5 684.5 24.2 766.6 8.1 849.9 1.8 941c-2.7 39.4-1.4 109.7 2.8 153 15.9 165.9 71.5 321.9 164.5 461.5 39.9 59.9 82.4 110.9 137 164 154.6 150.6 358.3 247.1 576.9 273.4 172.2 20.8 349-4.8 509.4-73.5 41-17.6 84.6-39.9 123.5-63.1 19.8-11.9 59.8-38.8 80-53.8 105.6-78.6 194.7-176.5 260.8-287 118.2-197.2 165.4-429.3 133.3-655.5-19.3-136.2-67.6-269.4-140.2-386.4-54-87.1-122.4-167-200.8-234.2C1531.5 138.6 1389.7 66 1237.8 29c-59-14.3-110.6-22.3-174.3-27-18.7-1.4-92.2-2.1-111-1zm62.3 361.2c30.9 7.7 53.2 13.8 53.2 14.4 0 .6-9.7 40-21.5 87.6-11.8 47.6-21.5 86.9-21.5 87.4s3.7 1.7 8.3 2.7c4.5 1.1 24.1 5.7 43.6 10.3 19.5 4.6 35.5 8.3 35.7 8.1.1-.1 9.8-39.3 21.7-87 11.8-47.8 21.7-87.1 22.1-87.4.5-.5 106.8 25.6 108.6 26.7.5.3-9.2 40.8-21.5 90s-22.1 89.8-21.7 90.1c.4.4 3.6 1.7 7.2 2.9 20.4 7 55.1 21.5 73.5 30.8 79.9 39.9 124.3 88.6 137.5 150.7 2.7 12.8 3.8 43.3 2.1 58.5-3.1 27.5-11.3 57.4-21.6 78.6-16 33-42.2 59.9-74 75.7-10.7 5.3-25.5 10.9-36.5 13.9-4.4 1.2-8 2.4-8 2.7 0 .3 3.5 2.4 7.7 4.5 11.3 5.8 35.3 22.2 47.1 32.2 28.6 24 48.8 55 57.1 87.6 4.6 17.7 5.5 25.6 5.5 47.3-.1 28.3-3.9 50.3-14 82.5-15.1 47.9-37.2 86.2-65.6 113.6-46.7 45.2-111.9 65-201.7 61.3-33-1.3-59.4-4.2-100-11-12.9-2.2-23.5-3.8-23.6-3.7-.1.2-10.3 40.8-22.5 90.3s-22.4 90.3-22.6 90.6c-.7 1.2-109.4-26.5-109.4-27.9 0-.6 9.9-40.9 22-89.4 12.2-48.4 21.7-88.4 21.3-88.8-.4-.4-13.4-3.9-28.8-7.8s-34.6-8.9-42.7-11l-14.8-4-.9 3.7c-.6 2-10.7 42.2-22.4 89.4-11.8 47.2-21.7 86.1-22.1 86.4-.4.4-98.5-23.3-108.2-26.2-.8-.2 6.5-31.3 21.6-91.4 19.5-78.2 22.5-91.1 21.1-91.5-10.1-3-70.4-18.3-144.6-36.7-40.1-10-73.3-18.4-73.7-18.8-.7-.6 51.5-122.6 53.3-124.5.4-.5 4.3.1 9.1 1.3 64.8 17 71 18.4 82.3 18.5 10.5.1 11.3-.1 17.7-3.2 7.5-3.6 14.5-10.7 18.4-18.3 1.4-3 16.1-59.5 38.3-148.6 20-79.9 36.5-143.9 37.1-144.1.8-.3.9-.7.2-1.1-.6-.4 8.6-39.1 24.4-102.1 22.8-91.3 25.3-102.3 25.4-109.9 0-15.8-5.1-28.5-15.9-39.1-13.2-13-23.4-16.6-98.9-34.4-7.9-1.8-14.6-3.6-14.9-4-.6-.6 27.6-114.6 28.7-115.9.7-.7 147.4 35.3 151.5 37.3 1.1.5 15.7 4.1 32.5 8 16.8 3.9 31.9 7.5 33.7 7.9l3.1.9 22.2-89.2c12.3-49 22.5-89.4 22.7-89.9.2-.4 1-.7 1.6-.7.7 0 25.2 5.9 54.5 13.2z"/><path d="M994.1 685.7c-7.4 28-53.1 213-52.9 214.1.2.9 2.3 2.1 4.8 2.7 50 13.1 71.8 18.3 93 21.9 70 12 118.5 6.9 150.5-15.9 8.2-5.8 18.4-16.9 23.5-25.3 4.8-8.1 10.1-22.4 12.6-33.8 2.5-11.7 2.3-30.5-.5-41.9-9.4-38.7-45.7-69.9-108.3-93.1-23.9-8.8-49.9-16-93.3-25.8-13.7-3.2-25.8-5.9-26.7-6.2-1.3-.4-1.9.4-2.7 3.3zM746.8 881.7c.7.3 1.6.2 1.9-.1.4-.3-.2-.6-1.3-.5-1.1 0-1.4.3-.6.6zM912.5 1013.2c-1.7 4.7-59.5 238.3-59.2 239.1.4 1.2 1 1.4 45.7 12.7 68.4 17.4 111.8 24.2 155 24.3 23.4 0 35.4-1.1 52.9-4.9 47.6-10.6 75.2-37.1 84.7-81.6 2.8-12.9 2.4-32.5-.9-45.1-9-34.2-37.7-63.6-85.3-87.5-40.3-20.2-83.4-33.7-172.9-54.1-20.4-4.7-19.4-4.5-20-2.9z"/></svg>